<?xml version="1.0" encoding="UTF-8" standalone="no"?>
<!-- Created with Inkscape (http://www.inkscape.org/) -->

<svg
   xmlns:dc="http://purl.org/dc/elements/1.1/"
   xmlns:cc="http://creativecommons.org/ns#"
   xmlns:rdf="http://www.w3.org/1999/02/22-rdf-syntax-ns#"
   xmlns:svg="http://www.w3.org/2000/svg"
   xmlns="http://www.w3.org/2000/svg"
   xmlns:sodipodi="http://sodipodi.sourceforge.net/DTD/sodipodi-0.dtd"
   xmlns:inkscape="http://www.inkscape.org/namespaces/inkscape"
   width="495.54276"
   height="495.90204"
   viewBox="0 0 495.54276 495.90204"
   version="1.1"
   id="svg2216"
   inkscape:version="0.92.3 (2405546, 2018-03-11)"
   sodipodi:docname="monogram3.svg">
  <defs
     id="defs2210" />
  <sodipodi:namedview
     id="base"
     pagecolor="#ffffff"
     bordercolor="#666666"
     borderopacity="1.0"
     inkscape:pageopacity="0.0"
     inkscape:pageshadow="2"
     inkscape:zoom="0.7"
     inkscape:cx="81.462817"
     inkscape:cy="274.48543"
     inkscape:document-units="px"
     inkscape:current-layer="layer1"
     showgrid="false"
     units="px"
     inkscape:window-width="1280"
     inkscape:window-height="737"
     inkscape:window-x="-8"
     inkscape:window-y="-8"
     inkscape:window-maximized="1"
     fit-margin-top="10"
     fit-margin-left="10"
     fit-margin-bottom="10"
     fit-margin-right="10"
     inkscape:showpageshadow="false"
     scale-x="1" />
  <metadata
     id="metadata2213">
    <rdf:RDF>
      <cc:Work
         rdf:about="">
        <dc:format>image/svg+xml</dc:format>
        <dc:type
           rdf:resource="http://purl.org/dc/dcmitype/StillImage" />
        <dc:title></dc:title>
      </cc:Work>
    </rdf:RDF>
  </metadata>
  <g
     inkscape:label="Layer 1"
     inkscape:groupmode="layer"
     id="layer1"
     transform="translate(348.73491,-51.855687)">
    

<g
       aria-label="n"
       style="font-style:normal;font-variant:normal;font-weight:normal;font-stretch:normal;font-size:5.33333349px;line-height:1.25;font-family:'Open Sans';-inkscape-font-specification:'Open Sans, Normal';font-variant-ligatures:normal;font-variant-caps:normal;font-variant-numeric:normal;font-feature-settings:normal;text-align:start;letter-spacing:0px;word-spacing:0px;writing-mode:lr-tb;text-anchor:start;fill:#000000;fill-opacity:1;stroke:none"
       id="text824">
      <path
         d="m -144.34623,167.30433 c 0.28212,8.74566 0.46413,36.22471 0.0409,56.67827 -0.28212,19.32509 -0.21159,33.57205 0.21159,42.74089 0.42318,9.87413 0.86909,54.43693 -0.68256,56.41176 -16.16637,-34.59065 -38.20338,-96.16245 -48.83754,-127.7171 -20.2966,20.74473 -37.7856,43.44618 -44.13326,78.71094 -4.23176,22.99262 -3.46969,45.2345 4.64573,68.19754 5.78342,20.87674 15.05132,33.99751 27.46451,48.24447 0,-3.24435 -0.53123,-8.10868 0.17407,-24.18941 0.56424,-11.84896 0.49371,-21.5115 -0.21159,-28.98763 -0.28212,-2.25695 -3.0373,-7.54666 -4.73001,-15.86914 -1.26953,-6.62977 -1.20796,-11.63288 -1.20796,-15.72359 0,-13.25955 1.47663,-30.43558 5.14416,-34.38523 l 9.91274,19.35767 c 18.08791,42.62591 36.87357,97.75666 51.61186,140.60697 16.26838,3.93949 23.58309,5.80805 31.73494,5.56235 1.26952,-136.6862 1.51042,-228.76204 -0.32334,-276.72211 -10.50071,1.06514 -22.80238,2.82681 -30.81429,7.08335 z"
         style="font-style:normal;font-variant:normal;font-weight:normal;font-stretch:normal;font-size:433.33334351px;font-family:'MONOGRAMOS left';-inkscape-font-specification:'MONOGRAMOS left';fill:#008000;fill-opacity:1"
         id="path822"
         inkscape:connector-curvature="0"
         sodipodi:nodetypes="cccccccccccsccccccc" />
    </g>



<g
       aria-label="m"
       style="font-style:normal;font-variant:normal;font-weight:normal;font-stretch:normal;font-size:5.33333349px;line-height:1.25;font-family:'Open Sans';-inkscape-font-specification:'Open Sans, Normal';font-variant-ligatures:normal;font-variant-caps:normal;font-variant-numeric:normal;font-feature-settings:normal;text-align:start;letter-spacing:0px;word-spacing:0px;writing-mode:lr-tb;text-anchor:start;fill:#008000;fill-opacity:1;stroke:none"
       id="text828">
      <path
         d="m 29.777674,251.68032 c -1.410591,-2.82118 -3.103299,-6.55924 -5.078126,-11.21419 -2.539062,-6.2066 -4.161241,-10.01519 -4.866536,-11.42578 -5.697855,-7.99386 -9.709046,-12.59332 -14.1764324,-18.61979 -13.5871458,16.8816 -28.9907166,31.23427 -28.1443626,30.67004 -21.915508,-40.71377 -22.52538,-41.90191 -34.478844,-72.60885 -9.748972,-4.26708 -16.098939,-7.22821 -30.224716,-8.37832 -2.424916,55.43613 0.922896,97.69772 0.772958,140.45385 -0.141059,56.14149 -2.095579,102.63393 -0.684989,137.33445 15.841395,-2.34406 25.028989,-3.55066 31.848495,-8.08408 l -1.964286,-152.52511 c -0.136235,-10.57855 0.775825,-16.7155 2.327474,-18.40821 13.949097,12.95872 17.29884,18.68017 30.671038,35.64733 15.041843,-13.2522 16.5487261,-16.08575 25.8570496,-22.74042 5.3602434,19.18403 4.866537,39.84917 -1.48111903,61.99544 -0.70529533,2.25695 -2.32747437,6.2066 -4.86653697,11.84896 -2.2569447,4.93707 -3.5970054,8.74566 -4.020182,11.42578 -0.9874134,5.5013 -1.057943,13.11849 -0.211589,22.85156 0.7052953,10.29731 0.775825,18.26715 0.211589,23.90951 9.1984165,-8.59776 21.6092994,-21.0178 30.9191954,-41.04818 18.337674,-39.49653 19.015701,-76.52452 7.58992,-111.08399 z"
         style="font-style:normal;font-variant:normal;font-weight:normal;font-stretch:normal;font-size:433.33334351px;font-family:'MONOGRAMOS right';-inkscape-font-specification:'MONOGRAMOS right';fill:#008000;fill-opacity:1"
         id="path825"
         inkscape:connector-curvature="0"
         sodipodi:nodetypes="ccccccccccscccccccccc" />
    </g>




    <path
       inkscape:connector-curvature="0"
       class="st2"
       d="m 136.55239,299.0738 c -4.93405,-6.16761 -11.87251,-10.63907 -19.58192,-12.48938 -0.61681,-0.15446 -1.07936,0.15409 -1.23355,0.61683 -2.00446,4.77973 -5.39659,8.78869 -9.86812,11.40992 0,0 -0.15409,0 -0.15409,0 -2.15866,-0.46274 -4.16316,-0.92513 -6.167639,-1.38768 -4.62564,-1.38775 -8.94291,-3.3922 -12.643443,-5.70498 1.079333,-3.54637 2.312863,-7.24685 4.317273,-10.33067 2.15865,-3.2379 5.39664,-5.39656 8.48037,-5.70495 3.700549,-0.46274 7.401139,1.69603 8.943089,5.08824 1.54189,3.3921 0.77094,7.55525 -2.00454,10.17645 -1.69605,1.69603 -4.1631,2.467 -6.16765,2.00442 -2.158549,-0.4627 -3.854629,-2.46705 -3.854629,-4.31727 0,-0.92513 0.4627,-2.00449 1.38769,-2.7754 0.15454,-0.15446 0.30831,-0.15446 0.30831,-0.30815 0.46271,0.77085 1.23353,1.23341 2.312829,1.23341 1.54192,0 2.77545,-1.23341 2.77545,-2.77537 0,-1.5419 -1.23353,-2.77542 -2.77545,-2.77542 -1.233489,0 -2.312829,0.92513 -2.621249,2.00453 -0.46271,0.15408 -0.92511,0.4627 -1.38766,0.77089 -1.38773,1.07933 -2.15867,2.77537 -2.15867,4.47143 0,3.08378 2.31287,5.85921 5.550789,6.63015 0.61679,0.15446 1.07933,0.15446 1.69613,0.15446 2.31281,0 4.62567,-0.92513 6.47595,-2.7754 3.39223,-3.23789 4.3174,-8.48041 2.46709,-12.79763 -2.00447,-4.16311 -6.63023,-6.93855 -11.255869,-6.32172 -2.46702,0.30815 -4.77989,1.38767 -6.93854,3.08374 1.54193,-4.77982 2.46708,-9.71382 2.62127,-14.49372 0,-0.46273 -0.30831,-0.92513 -0.61682,-1.07936 0,0 -0.15454,-0.15407 -0.15454,-0.15407 -2.46701,-1.23345 -5.0882,-2.15862 -7.555273,-2.92952 -0.15442,-0.92513 -0.77092,-1.85023 -1.69605,-2.15865 0,-6.32177 -2.00448,-12.02671 -5.5508,-16.18985 -1.85026,-2.31281 -4.31726,-4.00884 -7.09265,-5.2424 0,0 0,0 0,-0.15446 0,-1.07936 -0.61674,-2.00449 -1.54187,-2.46701 0,-0.61677 -0.15442,-1.07932 -0.15442,-1.69602 -0.15443,-0.61679 -0.15443,-1.2336 -0.30828,-1.85031 -0.4627,-2.77535 -0.92513,-5.39662 -0.30827,-8.01779 0.61673,-2.62124 2.31279,-4.77988 4.62565,-5.85917 2.3128,-1.07937 5.24239,-0.61679 7.09266,0.92517 1.85026,1.54179 2.62119,4.47141 1.54186,6.47592 -0.77093,1.69602 -2.77539,2.77535 -4.47146,2.62123 -0.30827,-1.2336 -1.38766,-2.31293 -2.77539,-2.31293 -1.54187,0 -2.77539,1.23353 -2.77539,2.7754 0,1.54195 1.23352,2.77539 2.77539,2.77539 0.92513,0 1.69606,-0.4627 2.15866,-1.07932 2.77539,0.30816 5.85912,-1.23349 7.09265,-3.85472 1.38773,-3.08371 0.46272,-7.09267 -2.15866,-9.25128 -2.46699,-2.15865 -6.32172,-2.62123 -9.40545,-1.23351 -0.61679,0.30815 -1.23353,0.6167 -1.85027,1.07928 -7.2469,-14.49371 -16.34403,-28.06229 -27.1372,-40.39742 0.4627,-5.55075 0.15442,-11.25568 -0.92513,-16.80648 -0.15444,-0.46274 -0.46272,-0.77097 -0.92514,-0.92512 -5.55079,-1.07938 -11.25578,-1.54196 -16.80657,-0.92518 -12.335102,-10.63902 -25.90368398,-19.89031 -40.39738,-27.13719 0.4627,-0.6167 0.77093,-1.23349 1.07933,-1.85026 1.38766,-3.08378 0.92512,-6.9385 -1.23354,-9.40551 -2.31286,-2.6212 -6.16752,-3.54633 -9.25131,-2.15869 -2.6212,1.23353 -4.16313,4.31738 -3.85473,7.09274 -0.61673,0.46274 -1.07933,1.23347 -1.07933,2.15861 0,1.54195 1.23353,2.7754 2.7754,2.7754 1.54192,0 2.77539,-1.23345 2.77539,-2.7754 0,-1.38763 -1.07933,-2.46696 -2.3128,-2.77539 0,-1.85026 0.92513,-3.70049 2.62121,-4.47146 2.15865,-1.07933 4.93405,-0.30855 6.47592,1.54191 1.54186,1.85026 1.85025,4.7798 0.92513,7.09266 -0.92513,2.31281 -3.238,4.00895 -5.85919,4.62561 -2.6212,0.61679 -5.2424,0.15447 -8.01779,-0.30815 -0.61674,-0.15447 -1.23353,-0.15447 -1.85026,-0.30817 -0.61674,-0.15408 -1.07933,-0.15408 -1.69607,-0.15408 -0.46272,-0.92509 -1.38773,-1.54192 -2.46706,-1.54192 0,0 0,0 -0.15442,0 -1.23347,-2.62118 -3.08374,-5.08823 -5.2424,-7.09268 -4.16311,-3.5463 -10.02224,-5.55079 -16.18982,-5.55079 -0.30828,-0.92511 -1.23347,-1.54183 -2.1586,-1.69603 -0.77094,-2.46704 -1.69607,-5.08824 -2.92959,-7.55529 0,0 -0.15443,-0.15409 -0.15443,-0.15409 -0.15443,-0.46269 -0.61674,-0.61672 -1.07933,-0.61672 -4.93406,0.15446 -9.86805,1.07936 -14.49371,2.62123 1.69607,-2.00451 2.9296,-4.47147 3.08373,-6.938513 0.46272,-4.62561 -2.1586,-9.40551 -6.32172,-11.25573 -4.16306,-2.00449 -9.559664,-0.92517 -12.797624,2.46697 -2.158628,2.31288 -3.083754,5.39662 -2.466998,8.17198 0.770936,3.238003 3.54632,5.550783 6.630102,5.550783 0,0 0,0 0,0 1.69607,0 3.23793,-0.77092 4.47146,-2.15857 0.30828,-0.46273 0.61674,-0.92513 0.77093,-1.38775 1.23353,-0.30854 2.00446,-1.387683 2.00446,-2.621203 0,-1.54183 -1.23352,-2.77539 -2.77539,-2.77539 -1.54192,0 -2.77539,1.23356 -2.77539,2.77539 0,0.92513 0.46271,1.69606 1.23347,2.312813 -0.15442,0.15446 -0.15442,0.30814 -0.30828,0.30814 -0.77093,0.77092 -1.69606,1.38769 -2.77539,1.38769 0,0 0,0 0,0 -2.004416,0 -3.854678,-1.6961 -4.317234,-3.854713 -0.462536,-2.00446 0.30839,-4.31731 2.004438,-6.16757 2.466996,-2.62124 6.784316,-3.54637 10.176446,-2.00445 3.39212,1.5419 5.39659,5.24239 5.08818,8.94291 -0.30826,3.083823 -2.46699,6.167543 -5.70492,8.480433 -3.08379,2.00445 -6.78432,3.23789 -10.330642,4.31727 -2.467004,-3.70053 -4.471442,-7.86361 -5.704948,-12.643503 -0.616746,-2.00442 -1.079312,-4.00891 -1.387692,-6.16756 0,0 0,-0.15371 0,-0.15371 2.621198,-4.47153 6.784264,-7.86367 11.409902,-9.86812 0.4627,-0.15446 0.77093,-0.77095 0.61673,-1.23345 -1.85026,-7.70948 -6.167494,-14.64798 -12.489188,-19.58203 -0.46254,-0.30816 -0.92513,-0.30816 -1.3877,0 -6.16753,4.93405 -10.63901,11.87255 -12.48926,19.58203 -0.15423,0.6167 0.15423,1.07925 0.61675,1.23345 4.62565,2.00445 8.78874,5.39659 11.40994,9.86812 0,0 0,0.15371 0,0.15371 -0.46259,2.15865 -0.92513,4.16314 -1.38768,6.16756 -1.38772,4.625653 -3.39215,8.942973 -5.70499,12.643503 -3.54635,-1.07937 -7.24686,-2.31282 -10.33063,-4.31727 -3.23796,-2.15866 -5.3966,-5.39661 -5.70498,-8.480433 -0.46259,-3.70052 1.69608,-7.40101 5.08822,-8.94291 3.39215,-1.54192 7.55523,-0.77102 10.17645,2.00445 1.69608,1.69607 2.46701,4.16311 2.00445,6.16757 -0.46255,2.158613 -2.31283,3.854713 -4.31729,3.854713 -0.92511,0 -2.00443,-0.4627 -2.77537,-1.38769 -0.15424,-0.15445 -0.15424,-0.30814 -0.30839,-0.30814 0.77093,-0.462703 1.2335,-1.233493 1.2335,-2.312813 0,-1.54183 -1.2335,-2.77539 -2.7754,-2.77539 -1.54188,0 -2.77539,1.23356 -2.77539,2.77539 0,1.23352 0.92513,2.312813 2.00445,2.621203 0.15417,0.46273 0.4626,0.92513 0.77094,1.38775 1.07932,1.38765 2.7754,2.15857 4.47146,2.15857 0,0 0,0 0,0 3.08376,0 5.85917,-2.46697 6.63011,-5.550783 0.61675,-2.77536 -0.30839,-5.8591 -2.46701,-8.17198 -3.23797,-3.39214 -8.48038,-4.31723 -12.79766,-2.46697 -4.16307,2.00442 -6.93848,6.63012 -6.32173,11.25573 0.30839,2.467033 1.3877,4.779853 3.08378,6.938513 -4.77984,-1.54188 -9.55971,-2.46704 -14.49372,-2.62124 -0.46253,0 -0.92513,0.30815 -1.07933,0.61673 0,0 -0.15423,0.15409 -0.15423,0.15409 -1.23351,2.46704 -2.15864,5.08824 -2.92958,7.55528 -0.92513,0.15408 -1.85026,0.77093 -2.15864,1.69603 -6.32174,0 -12.02671,2.00449 -16.18981,5.55079 -2.31282,1.85033 -4.0089,4.31726 -5.24241,7.09269 0,0 0,0 -0.15418,0 -1.07932,0 -2.00446,0.61683 -2.46702,1.54192 -0.61676,0 -1.07932,0.15407 -1.69608,0.15407 -0.61675,0.15371 -1.23351,0.15371 -1.85026,0.30818 -2.7754,0.46269 -5.39661,0.92516 -8.0178,0.30815 -2.62122,-0.61667 -4.77986,-2.3128 -5.85918,-4.62562 -1.07932,-2.31285 -0.61675,-5.2424 0.92514,-7.09265 1.54188,-1.85027 4.47146,-2.62124 6.47591,-1.54191 1.69609,0.77097 2.77541,2.77538 2.62121,4.47146 -1.2335,0.30854 -2.31282,1.38775 -2.31282,2.77538 0,1.54196 1.23351,2.77541 2.77538,2.77541 1.54189,0 2.77541,-1.23345 2.77541,-2.77541 0,-0.92513 -0.46254,-1.69605 -1.07932,-2.1586 0.30839,-2.77536 -1.23351,-5.85922 -3.85471,-7.09275 -3.08378,-1.38764 -7.09269,-0.46269 -9.25133,2.1587 -2.15864,2.46701 -2.6212,6.32173 -1.23351,9.4055 0.30839,0.61677 0.61676,1.23357 1.07932,1.85026 -14.49373,7.24689 -28.06232,16.34399 -40.39741,27.1372 -5.55079,-0.46269 -11.25577,-0.15408 -16.80656,0.92517 -0.46254,0.15447 -0.77095,0.46269 -0.92512,0.92513 -1.07933,5.5508 -1.5419,11.25573 -0.92515,16.80648 -10.63901,12.33513 -19.89032,25.90371 -27.13719,40.39742 -0.61675,-0.4627 -1.23351,-0.7709 -1.85026,-1.07928 -3.08377,-1.38772 -6.93849,-0.92514 -9.4055,1.23351 -2.62121,2.31281 -3.54634,6.16757 -2.15864,9.25128 1.23351,2.62123 4.31728,4.16311 7.09267,3.85472 0.4626,0.61677 1.23351,1.07932 2.15864,1.07932 1.54189,0 2.77539,-1.23344 2.77539,-2.77539 0,-1.54187 -1.2335,-2.7754 -2.77539,-2.7754 -1.3877,0 -2.46702,1.07933 -2.77539,2.31293 -1.85027,0 -3.70053,-0.92521 -4.47147,-2.62123 -1.07932,-2.15866 -0.3084,-4.93413 1.54188,-6.47592 1.85027,-1.54196 4.77985,-1.85031 7.09268,-0.92517 2.31283,0.92517 4.0089,3.23793 4.62565,5.85917 0.61676,2.62117 0.1542,5.24244 -0.30839,8.01779 -0.15419,0.61671 -0.15419,1.23352 -0.3084,1.85031 -0.1542,0.6167 -0.1542,1.07925 -0.1542,1.69602 -0.92513,0.46274 -1.54188,1.38765 -1.54188,2.46701 0,0 0,0 0,0.15446 -2.62121,1.23356 -5.08823,3.08378 -7.09268,5.2424 -3.54633,4.16314 -5.55079,10.02224 -5.55079,16.18985 -0.92513,0.30816 -1.54188,1.23352 -1.69607,2.15865 -2.46702,0.7709 -5.08822,1.69607 -7.55524,2.92952 0,0 -0.15422,0.15407 -0.15422,0.15407 -0.46253,0.15446 -0.61675,0.61682 -0.61675,1.07936 0.15422,4.93402 1.07932,9.86806 2.62121,14.49372 -2.00446,-1.69607 -4.47147,-2.92956 -6.93849,-3.08374 -4.62566,-0.46271 -9.4055,2.15861 -11.25576,6.32172 -2.00446,4.16307 -0.92514,9.55974 2.46701,12.79763 1.85027,1.69608 4.16309,2.7754 6.47592,2.7754 0.61676,0 1.07932,0 1.69608,-0.15446 3.23796,-0.77094 5.55078,-3.54637 5.55078,-6.63015 0,-1.69606 -0.77093,-3.2379 -2.15864,-4.47143 -0.46253,-0.30815 -0.92512,-0.6167 -1.38768,-0.77089 -0.3084,-1.2336 -1.38771,-2.00453 -2.62122,-2.00453 -1.54188,0 -2.77539,1.23352 -2.77539,2.77542 0,1.54196 1.23351,2.77537 2.77539,2.77537 0.92513,0 1.69608,-0.46271 2.31283,-1.23341 0.15422,0.15369 0.3084,0.15369 0.3084,0.30815 0.77094,0.77091 1.38769,1.69604 1.38769,2.7754 0,2.00446 -1.69607,3.85472 -3.85471,4.31727 -2.00445,0.46273 -4.31728,-0.30817 -6.16754,-2.00442 -2.62122,-2.46704 -3.54635,-6.78435 -2.00445,-10.17645 1.54188,-3.39221 5.39659,-5.39659 8.94293,-5.08824 3.08377,0.30817 6.16755,2.46705 8.48037,5.70495 2.00446,3.08382 3.23796,6.7843 4.31729,10.33067 -3.70053,2.467 -7.86362,4.47143 -12.64347,5.70498 -2.00445,0.61675 -4.0089,1.07933 -6.16754,1.38768 0,0 -0.15422,0 -0.15422,0 -4.47147,-2.62123 -7.86361,-6.7843 -9.86806,-11.40992 -0.1542,-0.46271 -0.77095,-0.77101 -1.23351,-0.61683 -7.70943,1.85031 -14.64792,6.16758 -19.58196,12.48938 -0.30838,0.46269 -0.30838,0.92505 0,1.38763 4.93404,6.16758 11.87253,10.63903 19.58196,12.48934 0.15423,0 0.15423,0 0.30838,0 0.4626,0 0.92515,-0.30817 1.07933,-0.77098 2.00446,-4.77989 5.3966,-8.78872 9.86807,-11.40997 0,0 0.15422,0 0.15422,0 2.15864,0.46271 4.16309,0.9251 6.16755,1.38765 4.62566,1.38774 8.94294,3.39216 12.64346,5.70501 -1.07932,3.5463 -2.31283,7.24689 -4.31728,10.33065 -2.15864,3.23793 -5.3966,5.39658 -8.48038,5.70501 -3.70052,0.46267 -7.40105,-1.6961 -8.94293,-5.08824 -1.54189,-3.39217 -0.77095,-7.55524 2.00445,-10.17644 1.69607,-1.69615 4.16309,-2.46708 6.16754,-2.00445 2.15864,0.46269 3.85472,2.46699 3.85472,4.31725 0,0.92514 -0.46259,2.00451 -1.3877,2.7754 -0.15417,0.15409 -0.3084,0.15409 -0.3084,0.30816 -0.46259,-0.77101 -1.2335,-1.23352 -2.31283,-1.23352 -1.54187,0 -2.77539,1.23352 -2.77539,2.77532 0,1.54191 1.23352,2.77547 2.77539,2.77547 1.23352,0 2.31283,-0.92517 2.62122,-2.0045 0.46253,-0.15408 0.92513,-0.46274 1.38769,-0.77097 1.3877,-1.07929 2.15864,-2.77532 2.15864,-4.47139 0,-3.08382 -2.31283,-5.85917 -5.55078,-6.63015 -2.7754,-0.61674 -5.85918,0.30817 -8.17201,2.46701 -3.39215,3.23798 -4.31728,8.48037 -2.467,12.79764 1.85025,3.85472 6.01335,6.47592 10.17644,6.47592 0.3084,0 0.77094,0 1.07932,0 2.46702,-0.30817 4.77984,-1.38764 6.93848,-3.08371 -1.54188,4.77985 -2.46701,9.55967 -2.6212,14.49371 0,0.4627 0.3084,0.92513 0.61675,1.07929 0,0 0.15422,0.15446 0.15422,0.15446 2.46702,1.23341 5.08822,2.15858 7.55524,2.92955 0.15422,0.92509 0.77094,1.85026 1.69607,2.15861 0,6.32169 2.00445,12.02671 5.5508,16.18982 1.85026,2.31281 4.31728,4.00888 7.09267,5.2424 0,0 0,0 0,0.15407 0,1.07933 0.61676,2.00451 1.54189,2.46705 0,0.61682 0.1542,1.07936 0.1542,1.69607 0.1542,0.61678 0.1542,1.23355 0.3084,1.85022 0.46253,2.77543 0.92513,5.39667 0.30839,8.01787 -0.61675,2.6212 -2.31283,4.77989 -4.62565,5.85914 -2.31283,1.07933 -5.24241,0.61678 -7.09268,-0.92513 -1.85026,-1.54184 -2.6212,-4.4715 -1.54188,-6.47592 0.77094,-1.69607 2.77539,-2.7754 4.47147,-2.62124 0.30839,1.23356 1.38769,2.31292 2.77539,2.31292 1.54188,0 2.77539,-1.23356 2.77539,-2.77539 0,-1.54195 -1.23351,-2.77547 -2.77539,-2.77547 -0.92513,0 -1.69607,0.46274 -2.15864,1.0794 -2.77539,-0.30816 -5.85916,1.23345 -7.09267,3.85461 -1.3877,3.08382 -0.46255,7.09274 2.15864,9.25135 1.54188,1.23356 3.54633,2.00449 5.70497,2.00449 1.23351,0 2.62121,-0.30816 3.70053,-0.77093 0.61676,-0.30816 1.23351,-0.61678 1.85026,-1.07936 7.24687,14.49374 16.344,28.06232 27.1372,40.39745 -0.46254,5.55079 -0.15422,11.2557 0.92512,16.80648 0.15419,0.4627 0.46254,0.77102 0.92514,0.92518 3.85472,0.77101 7.86362,1.23347 11.71833,1.23347 1.69609,0 3.39216,-0.15407 5.08823,-0.30815 12.33509,10.63906 25.90369,19.89037 40.39741,27.13726 -0.46253,0.61675 -0.77094,1.23353 -1.07932,1.85026 -1.38769,3.0838 -0.92513,6.93851 1.23351,9.40552 2.31283,2.62123 6.16755,3.54632 9.25131,2.15861 2.62121,-1.23352 4.16309,-4.31726 3.85473,-7.0927 0.61674,-0.4627 1.07931,-1.23345 1.07931,-2.15854 0,-1.54198 -1.23351,-2.77546 -2.7754,-2.77546 -1.54187,0 -2.77539,1.23348 -2.77539,2.77546 0,1.38764 1.07932,2.46693 2.31283,2.77536 0,1.85026 -0.92513,3.70052 -2.62121,4.47146 -2.15863,1.07932 -4.93403,0.30816 -6.47592,-1.54191 -1.54188,-1.8503 -1.85026,-4.77982 -0.92513,-7.09266 1.07932,-2.31277 3.23796,-4.00896 5.85917,-4.62569 2.62121,-0.6167 5.24242,-0.15446 8.0178,0.30815 0.61677,0.15409 1.23351,0.15409 1.85026,0.30817 0.61677,0.15446 1.07933,0.15446 1.69608,0.15446 0.46254,0.92513 1.38769,1.54195 2.46702,1.54195 0,0 0,0 0.15423,0 1.23352,2.62116 3.08378,5.08817 5.24242,7.09262 4.16309,3.54637 10.02226,5.55083 16.1898,5.55083 0.3084,0.92509 1.23352,1.54187 2.15865,1.69606 0.77094,2.46693 1.69607,5.08824 2.92957,7.55521 0,0 0.15423,0.15408 0.15423,0.15408 0.15416,0.46273 0.61675,0.61674 1.07932,0.77098 4.93403,-0.15447 9.86807,-1.07937 14.49373,-2.62121 -1.69608,2.00446 -2.92959,4.47147 -3.08377,6.93844 -0.46254,4.62565 2.15864,9.40554 6.32172,11.25576 1.3877,0.61674 2.92959,0.92513 4.47148,0.92513 3.08377,0 6.01334,-1.23352 8.17198,-3.3921 2.15864,-2.31284 3.08377,-5.39658 2.46702,-8.17202 -0.77094,-3.23794 -3.54634,-5.55075 -6.63011,-5.55075 0,0 0,0 0,0 -1.69606,0 -3.23795,0.7709 -4.47146,2.15861 -0.30839,0.46271 -0.61675,0.9251 -0.77094,1.38772 -1.23352,0.30817 -2.00445,1.38765 -2.00445,2.62121 0,1.54183 1.23351,2.77535 2.77539,2.77535 1.54189,0 2.7754,-1.23352 2.7754,-2.77535 0,-0.92518 -0.46254,-1.69608 -1.23351,-2.31289 0.15415,-0.15408 0.15415,-0.30817 0.30839,-0.30817 0.77094,-0.77093 1.69607,-1.38771 2.77538,-1.38771 0,0 0,0 0,0 2.00445,0 3.85471,1.69607 4.31728,3.85472 0.46254,2.00446 -0.3084,4.31727 -2.00445,6.16753 -2.46702,2.62124 -6.7843,3.54637 -10.17643,2.00445 -3.39215,-1.54186 -5.39661,-5.24239 -5.08824,-8.94295 0.3084,-3.08375 2.46702,-6.16754 5.70499,-8.48038 3.08377,-2.00442 6.78429,-3.23794 10.33062,-4.31723 2.46702,3.70049 4.47147,7.86359 5.70498,12.64341 0.61675,2.0045 1.07932,4.00892 1.3877,6.16753 0,0 0,0.15446 0,0.15446 -2.62121,4.47146 -6.7843,7.86368 -11.40995,9.8681 -0.46253,0.15407 -0.77094,0.77097 -0.61675,1.23356 1.85025,7.70943 6.16753,14.64786 12.48926,19.5819 0.1542,0.15409 0.46254,0.30816 0.77095,0.30816 0.30839,0 0.46254,-0.15446 0.77094,-0.30816 6.167504,-4.93404 10.638958,-11.87247 12.489218,-19.5819 0.15442,-0.46274 -0.15442,-1.07942 -0.61673,-1.23356 -4.625668,-2.00442 -8.788738,-5.39664 -11.409932,-9.8681 0,0 0,-0.15446 0,-0.15446 0.462526,-2.15861 0.925126,-4.16303 1.387682,-6.16753 1.387682,-4.62566 3.39214,-8.94292 5.704958,-12.64341 3.546302,1.07929 7.246822,2.31281 10.330612,4.31723 3.238,2.15866 5.39659,5.39663 5.70499,8.48038 0.46271,3.70056 -1.69606,7.40109 -5.08825,8.94295 -3.39214,1.54192 -7.5552,0.7709 -10.176416,-2.00445 -1.696072,-1.69614 -2.467018,-4.16307 -2.004438,-6.16753 0.462586,-2.15865 2.312818,-3.85472 4.317264,-3.85472 0,0 0,0 0,0 0.92513,0 2.00447,0.4627 2.77539,1.38771 0.15442,0.15409 0.15442,0.30817 0.30828,0.30817 -0.77094,0.46273 -1.23353,1.23348 -1.23353,2.31289 0,1.54183 1.23353,2.77535 2.77539,2.77535 1.54193,0 2.7754,-1.23352 2.7754,-2.77535 0,-1.23356 -0.92514,-2.31289 -2.00447,-2.62121 -0.15443,-0.46274 -0.46271,-0.92513 -0.77093,-1.38772 -1.07933,-1.38771 -2.77539,-2.15861 -4.47146,-2.15861 -2.929572,0 -5.859136,2.31281 -6.630072,5.55075 -0.616746,2.77544 0.308376,5.85918 2.467004,8.17202 2.158598,2.15858 5.088208,3.3921 8.171998,3.3921 1.54186,0 3.08373,-0.30815 4.47145,-0.92513 4.16306,-2.00446 6.93846,-6.63011 6.32172,-11.25576 -0.30826,-2.46697 -1.38766,-4.77986 -3.08379,-6.93844 4.77986,1.54184 9.71391,2.46697 14.49378,2.62121 0,0 0,0 0,0 0.46271,0 0.92512,-0.30817 1.07932,-0.77098 0,0 0.15443,-0.15408 0.15443,-0.15408 1.23346,-2.46697 2.1586,-5.08828 2.92959,-7.55521 0.92513,-0.15446 1.85026,-0.77097 2.1586,-1.69606 6.32173,0 12.02671,-2.00446 16.18983,-5.55083 2.3128,-1.85026 4.00887,-4.31723 5.2424,-7.09262 0,0 0,0 0.15442,0 1.07933,0 2.00446,-0.61682 2.46699,-1.54195 0.61681,0 1.07933,-0.15446 1.69614,-0.15446 0.61673,-0.15408 1.23346,-0.15408 1.85026,-0.30817 2.77539,-0.46273 5.39659,-0.92517 8.01778,-0.30815 2.62121,0.61673 4.77986,2.31292 5.85919,4.62569 1.07928,2.31284 0.61674,5.24236 -0.92513,7.09266 -1.54193,1.85026 -4.47152,2.62123 -6.47592,1.54191 -1.69614,-0.77094 -2.7754,-2.77539 -2.62127,-4.47146 1.23354,-0.30816 2.31287,-1.38772 2.31287,-2.77536 0,-1.54198 -1.23354,-2.77546 -2.77539,-2.77546 -1.54187,0 -2.77541,1.23348 -2.77541,2.77546 0,0.92509 0.46272,1.69604 1.07933,2.15854 -0.30827,2.77544 1.23347,5.85918 3.85473,7.0927 0.92514,0.46274 2.0044,0.61682 3.08374,0.61682 2.31285,0 4.62565,-1.07937 6.16758,-2.77543 2.15861,-2.46701 2.62119,-6.32172 1.23348,-9.40552 -0.30828,-0.61673 -0.61675,-1.23351 -1.07933,-1.85026 14.49375602,-7.24689 28.062328,-16.344 40.39743,-27.13726 1.69608,0.15446 3.39214,0.30815 5.08821,0.30815 4.00892,0 7.86364,-0.46273 11.71836,-1.23347 0.46272,-0.15371 0.77095,-0.46274 0.92514,-0.92518 1.07927,-5.55078 1.54186,-11.25569 0.92513,-16.80648 10.63899,-12.33513 19.8903,-25.90371 27.13715,-40.39745 0.61679,0.46273 1.23354,0.77093 1.85026,1.07936 1.23353,0.46269 2.46707,0.77093 3.70054,0.77093 2.00446,0 4.16312,-0.61678 5.70498,-2.00449 2.6212,-2.31281 3.54633,-6.16753 2.15866,-9.25135 -1.23353,-2.77536 -4.31733,-4.31723 -7.09272,-3.85461 -0.46271,-0.61678 -1.23346,-1.0794 -2.1586,-1.0794 -1.54193,0 -2.77538,1.23352 -2.77538,2.77547 0,1.54183 1.23345,2.77539 2.77538,2.77539 1.38768,0 2.46701,-1.07936 2.7754,-2.31292 1.85027,0 3.70053,0.92517 4.47146,2.62124 1.07933,2.15865 0.30828,4.93408 -1.54186,6.47592 -1.85027,1.54191 -4.77986,1.85026 -7.09272,0.92513 -2.31279,-0.92513 -4.00887,-3.23794 -4.62566,-5.85914 -0.61673,-2.6212 -0.15442,-5.24244 0.30827,-8.01787 0.15442,-0.61667 0.15442,-1.23344 0.30828,-1.85022 0.15442,-0.61671 0.15442,-1.07925 0.15442,-1.69607 0.92513,-0.46271 1.54193,-1.38772 1.54193,-2.46705 0,0 0,0 0,-0.15407 2.62119,-1.23352 5.08819,-3.08382 7.09265,-5.2424 3.54632,-4.16311 5.55079,-10.02225 5.55079,-16.18982 0.92513,-0.30815 1.54186,-1.23352 1.69606,-2.15861 2.467013,-0.77097 5.088263,-1.69614 7.555263,-2.92955 0,0 0.15454,-0.15446 0.15454,-0.15446 0.4627,-0.15408 0.61674,-0.61666 0.61674,-1.07929 -0.15454,-4.93404 -1.07934,-9.86806 -2.62122,-14.49371 2.00448,1.69607 4.47147,2.92959 6.93852,3.08371 0.30817,0 0.770909,0 1.079259,0 4.16317,0 8.32627,-2.6212 10.17658,-6.47592 2.0045,-4.16311 0.92514,-9.55966 -2.46702,-12.79764 -2.31286,-2.15862 -5.39666,-3.08375 -8.17207,-2.46701 -3.237999,0.77098 -5.550789,3.54633 -5.550789,6.63015 0,1.69607 0.77094,3.23791 2.15866,4.47139 0.46271,0.30816 0.9251,0.61678 1.38766,0.77097 0.30831,1.23356 1.38772,2.0045 2.621179,2.0045 1.54199,0 2.77545,-1.23356 2.77545,-2.77547 0,-1.5418 -1.23346,-2.77532 -2.77545,-2.77532 -0.925099,0 -1.696039,0.4627 -2.312789,1.23352 -0.15454,-0.15407 -0.30831,-0.15407 -0.30831,-0.30816 -0.77095,-0.77089 -1.38773,-1.69611 -1.38773,-2.7754 0,-2.00441 1.69608,-3.85471 3.854749,-4.31725 2.00446,-0.46274 4.31725,0.30815 6.16753,2.00445 2.62132,2.467 3.54646,6.78427 2.00454,10.17644 -1.54188,3.39214 -5.39666,5.39663 -8.943019,5.08824 -3.0838,-0.30815 -6.16754,-2.46708 -8.4804,-5.70501 -2.00446,-3.08376 -3.23793,-6.78435 -4.317263,-10.33065 3.700543,-2.46703 7.863623,-4.47141 12.643473,-5.70501 2.004469,-0.61675 4.008939,-1.07925 6.167559,-1.38765 0,0 0.15409,0 0.15409,0 4.47153,2.62125 7.86374,6.78432 9.86816,11.40997 0.15446,0.4627 0.61678,0.77098 1.07929,0.77098 0.15407,0 0.15407,0 0.30815,0 7.70941,-1.85031 14.64795,-6.16761 19.582,-12.48934 0.15446,-0.30815 0.15446,-0.92513 -0.15447,-1.38763 z m -61.367172,1.54183 c 2.6212,2.31285 5.08819,4.934 7.09265,7.86364 -2.62119,2.15861 -4.93405,4.62568 -6.78431,7.40105 -0.15442,0 -0.15442,0 -0.30828,0 -0.15442,0 -0.30826,0 -0.30826,0 -4.16306,-6.16757 -9.40546,-11.5642 -15.26465,-16.03563 6.01333,-4.47146 11.10159,-10.02229 15.26465,-16.03566 0.15442,0 0.30826,0 0.30826,0 0.15443,0 0.15443,0 0.30828,0 1.85026,2.77539 4.16312,5.24251 6.78431,7.40109 -2.15866,2.92955 -4.47145,5.55075 -7.09265,7.86368 -0.30827,0.15407 -0.30827,0.46269 -0.30827,0.77089 0,0.30816 0.15443,0.61674 0.30827,0.77094 z m 17.577513,36.54271 c -2.15866,1.07932 -4.47147,1.85026 -6.630133,2.62123 -0.46271,-0.46274 -0.92512,-0.77097 -1.54187,-0.92517 -0.61678,-3.70053 -1.69611,-7.70944 -3.54638,-11.87255 -1.07927,-2.31281 -2.1586,-4.62561 -3.39213,-6.78427 0.30827,-0.4627 0.46272,-0.92517 0.46272,-1.54184 0,-0.61677 -0.15444,-1.07936 -0.61674,-1.54199 1.69607,-2.46696 3.70053,-4.62561 6.16752,-6.6301 5.396593,7.8637 8.634583,17.26922 9.097123,26.67469 z m -19.581973,4.7798 c -0.15442,-0.30816 -0.30828,-0.61673 -0.61673,-0.77093 1.54186,-6.32176 2.62119,-12.64341 3.39213,-18.96517 1.07932,1.85026 2.00446,3.85472 2.92959,5.85913 1.69606,4.00892 2.92959,7.86364 3.39212,11.40997 -0.61672,0.46274 -0.92512,0.92513 -1.07933,1.69607 -2.62119,0.30816 -5.24238,0.61678 -8.01778,0.77093 z m -6.16752,23.12828 c -2.46706,0.46271 -4.93405,0.46271 -7.40105,0 -2.00446,-0.4627 -4.62567,-1.38764 -6.63013,-3.3921 -1.69606,-1.85026 -2.62118,-4.31726 -2.15866,-6.47595 0.61674,-2.92955 4.00892,-5.24236 7.24686,-5.24236 0.46271,0 0.92513,0 1.23353,0.15408 3.54633,0.61679 6.78432,3.54637 8.17199,7.55525 0.61673,1.69606 0.92513,3.54633 1.07932,5.55075 -0.61673,0.15446 -1.38772,0.92517 -1.54186,1.85026 z m -7.09271,-17.42325 c -4.93401,-0.92518 -10.17645,2.31284 -11.25578,6.93846 -0.61674,2.92962 0.46271,6.16753 2.62125,8.63453 1.85026,2.0045 4.62566,3.39218 7.86359,4.16315 0.77094,0.15408 1.69607,0.30816 2.467,0.30816 -8.78873,21.12378 -21.58636,40.24315 -37.7762,56.43301 0,0 -0.15442,0 -0.15442,0.15369 0,0 0,0.15408 -0.15442,0.15408 -16.343994,16.34413 -35.30921,28.9875 -56.43304,37.77619 0,-0.77086 -0.15442,-1.69603 -0.30827,-2.46692 -0.61674,-3.23795 -2.1586,-5.85923 -4.16306,-7.86361 -2.46706,-2.31288 -5.70499,-3.23801 -8.63458,-2.6213 -4.62566,0.9252 -7.86359,6.16764 -6.93846,11.2558 0.46271,2.77539 2.1586,5.39663 4.47146,7.24685 -2.31286,0.77098 -4.47146,1.38772 -6.78431,2.0045 -0.46272,-0.77097 -1.38767,-1.38776 -2.3128,-1.38776 -1.54193,0 -2.62126,1.07945 -2.77541,2.62124 -6.32178,1.54188 -12.7977,2.6212 -19.27361,3.39218 -0.46271,-0.77098 -1.38767,-1.38768 -2.3128,-1.38768 -0.61675,0 -1.07933,0.15408 -1.54187,0.4627 -6.32179,-4.31727 -11.872516,-9.7139 -16.343972,-16.03558 -0.462516,-0.61678 -1.387676,-0.61678 -1.850246,0 -4.47146,6.32168 -10.02226,11.71831 -16.34397,16.03558 -0.46255,-0.30817 -0.92513,-0.4627 -1.5419,-0.4627 -1.07932,0 -1.85026,0.6167 -2.31283,1.38768 -6.47591,-0.77098 -12.95183,-2.00453 -19.27357,-3.39218 -0.15415,-1.38768 -1.23351,-2.62124 -2.7754,-2.62124 -1.07932,0 -1.85026,0.61679 -2.31283,1.38776 -2.31282,-0.61678 -4.47146,-1.23352 -6.78429,-2.0045 2.31283,-2.00438 4.0089,-4.47146 4.47147,-7.24685 0.92513,-4.93397 -2.31283,-10.1764 -6.93849,-11.2558 -2.92958,-0.61671 -6.16754,0.46273 -8.63456,2.6213 -2.00445,1.85023 -3.39215,4.62566 -4.16309,7.86361 -0.15419,0.77089 -0.30839,1.69606 -0.30839,2.46692 -21.12383,-8.78869 -40.24322,-21.58629 -56.43302,-37.77619 0,0 0,-0.15408 -0.15424,-0.15408 0,0 -0.15423,0 -0.15423,-0.15369 -16.344,-16.34406 -28.98747,-35.30923 -37.77622,-56.43301 0.77094,0 1.69608,-0.15446 2.46702,-0.30816 3.23796,-0.61674 5.85916,-2.15865 7.86361,-4.16315 2.31284,-2.467 3.23797,-5.70491 2.62121,-8.63453 -0.92513,-4.62562 -6.16754,-7.86364 -11.25576,-6.93846 -2.7754,0.46269 -5.3966,2.15861 -7.24687,4.47145 -0.77094,-2.31284 -1.38769,-4.47145 -2.00445,-6.78426 0.77095,-0.46274 1.3877,-1.38776 1.3877,-2.31289 0,-1.54188 -1.07932,-2.6212 -2.62121,-2.77535 -1.54188,-6.32176 -2.6212,-12.79764 -3.39214,-19.27356 0.77094,-0.46274 1.38769,-1.38772 1.38769,-2.31282 0,-0.61677 -0.15419,-1.07936 -0.46254,-1.54199 4.31728,-6.32167 9.71389,-11.87246 16.03562,-16.34393 0.3084,-0.15408 0.46253,-0.61673 0.46253,-0.92513 0,-0.30816 -0.15419,-0.77089 -0.46253,-0.92513 -6.32173,-4.47146 -11.71834,-10.02225 -15.88143,-16.34401 0.3084,-0.46273 0.46259,-0.92509 0.46259,-1.54187 0,-1.07932 -0.61675,-1.85026 -1.38769,-2.31281 0.77094,-6.47596 2.00446,-12.95184 3.39215,-19.27356 1.3877,-0.15409 2.6212,-1.23353 2.6212,-2.77543 0,-1.07929 -0.61674,-1.85022 -1.3877,-2.31281 0.61677,-2.31289 1.23351,-4.4715 2.00446,-6.78435 2.00445,2.31285 4.47147,4.00892 7.24686,4.47146 4.93404,0.92513 10.17645,-2.31277 11.25577,-6.93842 0.61675,-2.92959 -0.46254,-6.16757 -2.62121,-8.63461 -1.85026,-2.00442 -4.62565,-3.39214 -7.86361,-4.16307 -0.77095,-0.15409 -1.69608,-0.30817 -2.46702,-0.30817 8.78875,-21.12382 21.43222,-40.08907 37.77622,-56.433 0.30839,-0.15446 0.46254,-0.30816 0.61676,-0.61673 16.34399,-16.18989 35.30918,-28.8333 56.27883,-37.6221 0,0.771 0.15424,1.69614 0.30839,2.46708 0.61676,3.2379 2.15864,5.85913 4.16309,7.86359 2.46702,2.31285 5.70499,3.23798 8.63457,2.62124 4.62566,-0.9252 7.86362,-6.16756 6.93848,-11.25577 -0.46253,-2.7754 -2.15864,-5.39666 -4.47146,-7.24693 2.31282,-0.7709 4.47146,-1.38764 6.78429,-2.00442 0.46254,0.77102 1.3877,1.38768 2.31283,1.38768 1.54189,0 2.62121,-1.07929 2.77539,-2.62121 6.32173,-1.54179 12.79765,-2.62115 19.27358,-3.39205 0.46254,0.7709 1.3877,1.38764 2.31282,1.38764 0.61675,0 1.07933,-0.15446 1.54189,-0.4627 6.32172,4.31727 11.87251,9.71382 16.34399,15.88135 0.46253,0.61678 1.387696,0.61678 1.850256,0 4.471436,-6.32168 10.022212,-11.71828 16.343932,-15.88135 0.46272,0.30816 0.92513,0.4627 1.54186,0.4627 1.07934,0 1.85027,-0.61674 2.31287,-1.38764 6.47592,0.7709 12.95184,2.00435 19.27356,3.39205 0.15442,1.38772 1.23353,2.62121 2.7754,2.62121 1.07932,0 1.85026,-0.61666 2.31279,-1.38768 2.31286,0.61678 4.47152,1.23352 6.78432,2.00442 -2.3128,2.00445 -4.00892,4.47153 -4.47146,7.24693 -0.92513,4.93401 2.31281,10.17644 6.93846,11.25577 0.61679,0.15446 1.07933,0.15446 1.69612,0.15446 2.467,0 4.934,-1.07932 6.78426,-2.77539 2.00446,-1.85027 3.39219,-4.62566 4.16312,-7.8636 0.15443,-0.77093 0.30828,-1.69606 0.30828,-2.46701 21.12382,8.78873 40.243186,21.58638 56.43302,37.77619 0,0 0,0.15369 0.15443,0.15369 0.15442,0.15408 0.15442,0.15408 0.30827,0.15408 16.18977,16.34408 28.98748,35.30922 37.77619,56.43304 -0.77093,0 -1.69606,0.15446 -2.467,0.30817 -3.23798,0.61677 -5.85918,2.15869 -7.86364,4.16311 -2.31281,2.46704 -3.23794,5.70493 -2.6212,8.63457 0.92514,4.62561 6.32173,7.86363 11.25578,6.9385 2.77539,-0.46274 5.39659,-2.15866 7.24685,-4.4715 0.77093,2.31284 1.38773,4.4715 2.00446,6.78435 -0.77093,0.46266 -1.38772,1.38768 -1.38772,2.31281 0,1.54186 1.07933,2.62123 2.62125,2.77546 1.54187,6.32165 2.6212,12.79757 3.39213,19.27357 -0.77093,0.46266 -1.38773,1.38764 -1.38773,2.31277 0,0.61674 0.15443,1.07929 0.46272,1.5419 -4.31726,6.32177 -9.71385,11.87252 -15.88138,16.34398 -0.30827,0.15446 -0.46271,0.6167 -0.46271,0.92509 0,0.30816 0.15442,0.77097 0.46271,0.92513 6.32172,4.47147 11.71831,10.02225 15.88138,16.34397 -0.30828,0.46274 -0.46272,0.92518 -0.46272,1.54195 0,1.07937 0.6168,1.85023 1.38773,2.31278 -0.77093,6.47595 -2.00446,12.95187 -3.39213,19.27356 -1.38773,0.15446 -2.62125,1.23355 -2.62125,2.77543 0,1.07929 0.61679,1.85026 1.38772,2.31285 -0.61673,2.31281 -1.23353,4.47145 -2.00446,6.78426 -2.3128,-2.15861 -4.77985,-3.70044 -7.55525,-4.31727 z m -97.60136,121.96312 c -2.00446,-0.15369 -3.85472,-0.4627 -5.55079,-1.07929 -4.00892,-1.54188 -6.93851,-4.77981 -7.55525,-8.17202 -0.61673,-3.70053 1.69607,-7.8636 5.0882,-8.6345 0.46271,-0.15446 0.77099,-0.15446 1.23353,-0.15446 1.85026,0 3.70052,0.77094 5.24239,2.15866 2.15866,2.00441 3.08379,4.62565 3.39218,6.63007 0.46272,2.46708 0.46272,4.93405 0,7.40105 -0.77093,0.15408 -1.54192,0.92513 -1.85026,1.85026 z m -35.15499,10.02228 c -2.00447,-0.92513 -3.85473,-1.85022 -5.85919,-2.92955 6.32172,-0.77093 12.64344,-2.00449 18.96522,-3.39221 0.30828,0.30817 0.46272,0.46274 0.77093,0.61679 -0.15442,2.77542 -0.30827,5.39663 -0.92513,8.17202 -0.77093,0.15446 -1.23353,0.4627 -1.69606,1.07932 -3.39218,-0.61677 -7.24691,-1.69602 -11.25577,-3.54637 z m -19.427782,3.54637 c -2.929564,-2.15865 -5.550762,-4.4715 -7.863566,-7.09273 -0.46259,-0.46266 -1.2335,-0.46266 -1.69606,0 -2.31284,2.62123 -4.93405,5.08831 -7.86363,7.09273 -2.15864,-2.62123 -4.62564,-4.93404 -7.40104,-6.7843 0,-0.15408 0,-0.15408 0,-0.30817 0,-0.15408 0,-0.30815 0,-0.30815 6.16753,-4.16307 11.56413,-9.40548 16.0356,-15.26473 4.47144,6.01345 10.022188,11.10166 16.035558,15.26473 0,0.15446 0,0.30815 0,0.30815 0,0.15409 0,0.15409 0,0.30817 -2.467,1.69603 -4.93405,4.00891 -7.246862,6.7843 z m -48.106776,-0.15446 c -0.4626,-0.6167 -0.92513,-0.92509 -1.69606,-1.07929 -0.46261,-2.62123 -0.77095,-5.39659 -0.92514,-8.17206 0.30838,-0.15408 0.61675,-0.30816 0.77093,-0.6167 6.32174,1.54191 12.64348,2.62124 18.9652,3.39217 -1.85026,1.07929 -3.85471,2.00442 -5.85916,2.92955 -3.85472,2.00446 -7.70943,3.08374 -11.25577,3.54633 z m -23.74504,-13.41442 c -0.30839,-0.92513 -1.07932,-1.69607 -2.00445,-1.85026 -0.46254,-2.467 -0.46254,-4.93397 0,-7.40105 0.46253,-2.00442 1.38769,-4.62566 3.39214,-6.63007 1.85027,-1.69615 4.31728,-2.62121 6.47592,-2.15866 3.39216,0.77094 5.85918,4.77985 5.08823,8.63461 -0.61676,3.54629 -3.54634,6.78427 -7.55524,8.17195 -1.54189,0.61677 -3.39215,1.07929 -5.3966,1.23348 z M -268.8095,365.06642 c -0.3084,-0.92513 -0.92512,-1.69602 -1.85026,-2.00438 0.15421,-2.00449 0.4626,-3.85475 1.07932,-5.55079 1.54188,-4.00891 4.77986,-6.93853 8.17199,-7.55524 3.70054,-0.77094 7.86363,1.69603 8.63457,5.08817 0.46259,2.15869 -0.3084,4.62565 -2.15864,6.47591 -2.00445,2.15869 -4.62567,3.08379 -6.63011,3.39221 -2.15865,0.61675 -4.77985,0.61675 -7.24687,0.15409 z m -14.18536,-24.05344 c -0.1542,-0.77086 -0.46253,-1.23341 -1.07931,-1.69604 0.46255,-3.54632 1.69609,-7.40109 3.39216,-11.40989 0.92513,-2.00449 1.85027,-3.85475 2.92957,-5.85921 0.77095,6.32173 2.00447,12.64349 3.39215,18.96514 -0.30838,0.30815 -0.46253,0.46274 -0.61675,0.77101 -2.7754,0 -5.3966,-0.30816 -8.01782,-0.77101 z m -2.46699,-30.52933 c 2.46699,2.00449 4.62565,4.16314 6.16754,6.6301 -0.30842,0.46271 -0.61675,0.92522 -0.61675,1.54199 0,0.61667 0.15418,1.07925 0.46252,1.54184 -1.23351,2.15866 -2.46701,4.47146 -3.39214,6.78427 -1.85026,4.16311 -2.9296,8.17202 -3.54634,11.87255 -0.61676,0.15446 -1.23352,0.4627 -1.54188,0.92517 -2.15864,-0.61685 -4.47147,-1.54191 -6.63013,-2.62123 0.46254,-9.40547 3.70054,-18.81099 9.09715,-26.67469 z m 8.48036,-11.40985 c -2.6212,-2.31293 -5.08823,-4.93413 -7.09269,-7.86368 2.62123,-2.15858 4.93406,-4.6257 6.78431,-7.40109 0.1542,0 0.1542,0 0.30841,0 0.1542,0 0.3084,0 0.3084,0 4.16309,6.16761 9.40549,11.5642 15.26467,16.03566 -6.01337,4.47143 -11.10158,10.02225 -15.26467,16.03563 -0.1542,0 -0.3084,0 -0.3084,0 -0.15421,0 -0.15421,0 -0.30841,0 -1.85025,-2.77537 -4.16309,-5.24244 -6.78431,-7.40105 2.15866,-2.92964 4.47149,-5.55079 7.09269,-7.86364 0.30839,-0.15409 0.30839,-0.46269 0.30839,-0.77094 0,-0.30816 -0.15419,-0.6167 -0.30839,-0.77089 z m -17.5775,-36.54282 c 2.15864,-1.07929 4.47148,-1.85023 6.63012,-2.62112 0.46254,0.46269 0.92513,0.77089 1.54188,0.92509 0.61674,3.70052 1.69607,7.70948 3.54633,11.87248 1.07933,2.31291 2.15865,4.62572 3.39216,6.78437 -0.30841,0.46274 -0.46254,0.9251 -0.46254,1.54188 0,0.61678 0.15418,1.07929 0.61676,1.54187 -1.69608,2.46704 -3.70054,4.6257 -6.16754,6.63012 -5.39661,-7.86361 -8.63458,-17.26911 -9.09714,-26.67469 z m 19.58196,-4.77981 c 0.1542,0.30815 0.3084,0.61677 0.61674,0.77101 -1.54188,6.32168 -2.6212,12.64344 -3.39215,18.96513 -1.0793,-1.85026 -2.00444,-3.85468 -2.92958,-5.85917 -1.69607,-4.00885 -2.92958,-7.86357 -3.39215,-11.40989 0.61675,-0.4627 0.92514,-0.92518 1.07931,-1.69607 2.62122,-0.30816 5.24242,-0.61682 8.01783,-0.77101 z m 6.16753,-23.12828 c 2.46703,-0.4627 4.93404,-0.4627 7.40105,0 2.00446,0.46273 4.62568,1.38775 6.63011,3.39217 1.69608,1.8503 2.62122,4.31726 2.15866,6.47595 -0.77096,3.3921 -4.77985,5.85915 -8.63457,5.08817 -3.54633,-0.61674 -6.78431,-3.54633 -8.17199,-7.55524 -0.61676,-1.69604 -0.92514,-3.5463 -1.07932,-5.55079 0.77094,-0.15446 1.54188,-0.92513 1.69606,-1.85026 z m 104.69408,-104.53987 c 2.00445,0.15446 3.85471,0.46274 5.55079,1.07929 4.0089,1.54191 6.93848,4.77988 7.55523,8.17202 0.61677,3.70053 -1.69606,7.86364 -5.08822,8.63457 -2.15864,0.46274 -4.62565,-0.30816 -6.47593,-2.15865 -2.15863,-2.00449 -3.08376,-4.62566 -3.39213,-6.63015 -0.4626,-2.46692 -0.4626,-4.93397 0,-7.40105 0.77094,0 1.54187,-0.77086 1.85026,-1.69603 z m 35.15499,-10.02225 c 2.00446,0.92513 3.85472,1.85027 5.85917,2.92959 -6.32173,0.77094 -12.64346,2.0045 -18.96518,3.39213 -0.3084,-0.30815 -0.46261,-0.46273 -0.77095,-0.61674 0.15423,-2.77539 0.30838,-5.39659 0.92513,-8.17198 0.77094,-0.15408 1.23351,-0.46274 1.69607,-1.07929 3.39215,0.6167 7.24686,1.69603 11.25576,3.54629 z m 19.42776,-3.54629 c 2.92958,2.15862 5.55079,4.47142 7.86362,7.09258 0.15422,0.30816 0.46253,0.30816 0.77094,0.30816 0.30839,0 0.61675,-0.15407 0.77094,-0.30816 2.312804,-2.62116 4.934002,-5.08816 7.863566,-7.09258 2.158618,2.62116 4.625682,4.93401 7.401072,6.7843 0,0.15409 0,0.15409 0,0.30817 0,0.15446 0,0.30816 0,0.30816 -6.16758,4.16311 -11.564142,9.40558 -16.035578,15.26469 -4.47147,-6.01334 -10.02226,-11.10158 -16.03561,-15.26469 0,-0.15408 0,-0.30816 0,-0.30816 0,-0.15408 0,-0.15408 0,-0.30817 2.62122,-1.69613 5.08822,-4.00895 7.40105,-6.7843 z m 48.106758,0.15408 c 0.46271,0.6167 0.92514,0.92517 1.69612,1.07932 0.46272,2.62121 0.77093,5.3966 0.92513,8.17203 -0.30827,0.15409 -0.61679,0.30816 -0.77098,0.6167 -6.32173,-1.54186 -12.64345,-2.62119 -18.96517,-3.39213 1.85026,-1.07937 3.85472,-2.00446 5.85918,-2.92959 3.85467,-2.0045 7.7094,-3.08378 11.25572,-3.54633 z m 23.74508,13.41439 c 0.30828,0.92516 1.07933,1.54194 2.00447,1.85022 0.4627,2.46704 0.4627,4.93412 0,7.40109 -0.46271,2.00445 -1.38773,4.62562 -3.3922,6.63015 -1.85026,1.69603 -4.31725,2.62116 -6.47591,2.15861 -3.39213,-0.7709 -5.85913,-4.77981 -5.08821,-8.63457 0.61675,-3.54633 3.54634,-6.78431 7.55526,-8.17194 1.54187,-0.61675 3.39213,-1.07937 5.39659,-1.23356 z m 104.69407,104.53963 c 0.30828,0.92514 0.92513,1.69603 1.85026,2.00446 -0.15443,2.0045 -0.4627,3.85472 -1.07933,5.55078 -1.54192,4.00891 -4.77985,6.93851 -8.17198,7.55529 -3.85472,0.61674 -7.86366,-1.69607 -8.63459,-5.08828 -0.46271,-2.15858 0.30828,-4.62566 2.15866,-6.47592 2.00441,-2.15861 4.62567,-3.08374 6.63007,-3.3921 1.23352,-0.30816 2.46705,-0.30816 3.70052,-0.30816 0,0 0,0 0,0 0,0 0,0 0,0 1.07933,-0.15446 2.31286,0 3.54639,0.15409 z m 14.1853,24.05342 c 0.15444,0.77101 0.46272,1.23356 1.07933,1.69614 -0.4627,3.54637 -1.69606,7.40104 -3.39212,11.40988 -0.92513,2.0045 -1.85027,3.85473 -2.92959,5.85926 -0.77094,-6.3218 -2.00447,-12.64349 -3.39213,-18.96528 0.30827,-0.30817 0.4627,-0.46271 0.61673,-0.77091 2.7754,0 5.39659,0.30817 8.01778,0.77091 z m -3.70051,23.89928 c 0.30828,-0.46274 0.61678,-0.92513 0.61678,-1.54195 0,-0.61674 -0.15442,-1.07932 -0.4627,-1.54183 1.23347,-2.15861 2.46699,-4.47146 3.39213,-6.78435 1.85026,-4.16303 2.92959,-8.17198 3.54632,-11.8725 0.61674,-0.15408 1.23353,-0.46274 1.54187,-0.92509 2.158663,0.6167 4.471513,1.54183 6.630113,2.62115 -0.4627,9.40551 -3.70052,18.81105 -9.097113,26.82881 -2.467,-2.15858 -4.47146,-4.31727 -6.16752,-6.78424 z m 0.15442,-41.78517 c 3.23799,3.85472 4.93405,9.09715 4.93405,14.80214 -0.30826,0.15407 -0.61673,0.46269 -0.92513,0.77093 -2.77539,-0.61674 -5.70498,-0.92513 -8.63459,-0.92513 -0.30827,-0.77094 -0.92512,-1.23352 -1.69605,-1.54191 -0.77093,-2.92955 -1.69607,-5.8591 -2.46701,-8.63454 0,0 0,-0.15407 -0.15442,-0.15407 0.30828,-0.61675 0.77094,-1.38772 1.07933,-2.15865 0.77094,-2.00446 1.23347,-4.16303 1.23347,-6.78424 0.15443,0 0.15443,-0.15446 0.30828,-0.15446 2.46705,1.23352 4.62565,2.77543 6.32172,4.7799 z m -9.86805,-21.27798 c -0.77093,2.92955 -0.15443,6.01329 0.30828,8.94292 0.15442,0.61671 0.15442,1.23352 0.30828,1.69607 0,0.46269 0.15442,0.7709 0.15442,1.23348 -0.46272,0.15447 -0.92513,0.61674 -1.23353,1.07937 -1.07933,-0.15447 -2.15861,-0.30816 -3.39213,-0.46274 -8.78879,-21.27798 -21.43223,-40.39742 -37.62206,-57.04975 4.93405,-1.85022 10.48485,-2.15865 16.49822,-1.07932 10.79319,12.33509 20.0445,26.0579 27.44555,40.86004 -1.23352,1.38764 -2.00446,3.08371 -2.46699,4.77982 z m -26.05787,-62.29199 c 0.92513,4.77981 1.23353,9.55966 0.92513,14.49371 -5.70498,-1.07933 -11.40997,-0.77094 -16.34397,0.92509 1.69606,-4.93397 2.00446,-10.48476 0.92513,-16.34393 4.934,-0.30817 9.86806,0 14.49371,0.92513 z m -71.23513,-26.36622 c 2.9296,0.46274 5.85918,1.07932 8.94291,0.30816 1.69608,-0.46274 3.3922,-1.23348 4.62566,-2.31277 14.6479661,7.24685 28.370737,16.49813 40.85999,27.44555 1.23353,5.85917 0.77093,11.56408 -1.07933,16.49816 -16.498174,-16.18978 -35.61753,-28.8333 -57.04977,-37.62202 0,-1.07933 -0.15442,-2.15866 -0.46271,-3.39218 0.46271,-0.30816 0.77094,-0.77089 1.07933,-1.23345 0.46271,0 0.77094,0.15446 1.23347,0.15446 0.771,-0.15446 1.38773,0 1.85028,0.15409 z m -7.55525,-3.23794 c -0.15442,0.15446 -0.15442,0.15446 -0.15442,0.30816 -2.467,0.1537 -4.62567,0.46269 -6.78433,1.23348 -0.77093,0.30816 -1.38767,0.61682 -2.1586,1.07936 0,0 -0.15443,0 -0.15443,-0.15407 -2.92958,-0.92517 -5.70498,-1.69611 -8.63458,-2.46705 -0.30827,-0.77093 -0.77093,-1.38768 -1.54186,-1.69602 -0.15442,-2.92964 -0.46272,-5.70503 -0.92513,-8.63465 0.30827,-0.30817 0.61673,-0.61667 0.77093,-0.92506 5.70499,0 11.10157,1.69603 14.80211,4.93401 2.00446,1.69606 3.54633,3.85475 4.77985,6.32172 z m -23.89923,-14.8021 c -0.46271,0.46274 -0.77094,0.92509 -0.92513,1.54187 -3.70052,0.61682 -7.70944,1.69607 -11.87251,3.54633 -2.31286,1.07932 -4.62566,2.15865 -6.78432,3.39217 -0.46271,-0.30815 -0.92513,-0.46266 -1.54186,-0.46266 -0.6168,0 -1.07933,0.15408 -1.54193,0.61675 -2.467,-1.69615 -4.62566,-3.85476 -6.630064,-6.16757 8.017794,-5.39659 17.423304,-8.6345 26.828814,-9.09712 0.92514,2.15865 1.69606,4.4715 2.467,6.63011 z M -111.69107,81.667847 c 1.69608,-6.63019 5.55079,-12.48937 10.7932,-16.96087 5.242372,4.4715 8.942882,10.33068 10.793104,16.96087 -4.317226,2.00434 -8.017726,5.08812 -10.793104,9.09704 -2.77539,-4.00892 -6.47592,-7.0927 -10.7932,-9.09704 z m 10.48482,18.502583 c 0.15424,-0.462703 0.3084,-0.925133 0.3084,-1.233513 0.15423,0.46269 0.30839,0.92508 0.30839,1.233513 1.541872,5.55083 4.00887,10.48479 6.938434,14.6479 -2.621188,2.0045 -5.088182,4.16307 -7.246814,6.47592 -2.15864,-2.31285 -4.62566,-4.47142 -7.24686,-6.47592 2.92957,-4.16311 5.2424,-9.09707 6.93848,-14.6479 z m -37.00525,6.01333 c 9.40551,0.4627 18.81102,3.70053 26.82881,9.09716 -2.00444,2.46696 -4.16308,4.62561 -6.6301,6.16753 -0.46253,-0.30817 -0.92513,-0.61674 -1.54189,-0.61674 -0.61675,0 -1.07932,0.15407 -1.54189,0.46269 -2.15864,-1.23356 -4.47147,-2.46711 -6.78429,-3.39225 -4.16309,-1.85022 -8.172,-2.92951 -11.87252,-3.54628 -0.15419,-0.61675 -0.46254,-1.23349 -0.92513,-1.54188 0.61675,-2.15865 1.38769,-4.4715 2.46701,-6.63011 z m -21.74059,15.11049 c 3.85471,-3.23801 9.09712,-4.93404 14.8021,-4.93404 0.15424,0.30816 0.46255,0.61674 0.77095,0.92513 -0.61676,2.77539 -0.92513,5.70499 -0.92513,8.63457 -0.77094,0.30816 -1.23352,0.92513 -1.54189,1.69607 -2.92959,0.77093 -5.85916,1.69602 -8.63455,2.467 0,0 -0.1542,0 -0.1542,0.15446 -0.61675,-0.30816 -1.3877,-0.77089 -2.15864,-1.07928 -2.00445,-0.77094 -4.16309,-1.23345 -6.7843,-1.23345 0,-0.15446 -0.15415,-0.15446 -0.15415,-0.30816 1.23349,-2.467 2.77538,-4.62566 4.77983,-6.32168 z m -12.33508,9.55967 c 0.61674,-0.15446 1.2335,-0.15446 1.69607,-0.30816 0.46254,0 0.77093,-0.15447 1.2335,-0.15447 0.15424,0.4627 0.61676,0.92514 1.07933,1.23352 -0.15424,1.07925 -0.3084,2.15862 -0.46254,3.39214 -21.27802,8.78873 -40.39742,21.43222 -57.04979,37.62199 -1.85026,-4.93401 -2.31282,-10.4848 -1.07931,-16.49817 12.33509,-10.79314 26.05787,-20.04449 40.85998,-27.44554 1.38768,1.07936 2.92958,2.00445 4.62565,2.31281 3.08377,0.77093 6.16755,0.30815 9.09714,-0.15408 z m -71.23515,26.36629 c 4.77985,-0.92513 9.55971,-1.23352 14.49374,-0.92513 -1.07932,5.70495 -0.77094,11.40997 0.92513,16.34393 -3.08376,-1.07932 -6.32173,-1.54186 -9.71388,-1.54186 -2.15865,0 -4.31729,0.15408 -6.47594,0.61677 -0.4626,-4.93404 -0.15419,-9.71389 0.77095,-14.49371 z m -28.5249,57.51234 c 7.24687,-14.64795 16.49819,-28.37076 27.44558,-40.85998 5.85917,-1.23356 11.56415,-0.77097 16.49819,1.07933 -16.18982,16.49817 -28.83328,35.61753 -37.62203,57.04975 -1.07933,0 -2.15865,0.15408 -3.39215,0.4627 -0.3084,-0.4627 -0.77095,-0.77097 -1.23351,-1.07936 0,-0.46267 0.1542,-0.77086 0.1542,-1.23349 0.15419,-0.6167 0.15419,-1.23352 0.30839,-1.6961 0.46254,-2.92956 1.07932,-5.85915 0.3084,-8.94285 -0.4626,-1.69618 -1.23351,-3.39225 -2.46702,-4.77989 z m -7.40105,26.05783 c 1.69608,-2.00442 3.85472,-3.70049 6.32173,-4.77978 0.1542,0.15408 0.1542,0.15408 0.3084,0.15408 0.1542,2.46701 0.4626,4.62566 1.23352,6.78424 0.3084,0.77097 0.61674,1.38778 1.07931,2.15873 0,0 0,0.15407 -0.15419,0.15407 -0.92513,2.92959 -1.69606,5.70498 -2.46702,8.63453 -0.77094,0.30817 -1.38769,0.77098 -1.69607,1.54196 -2.92958,0.15408 -5.70498,0.4627 -8.63457,0.92509 -0.30839,-0.30817 -0.61675,-0.6167 -0.92513,-0.7709 -0.15422,-5.70498 1.69608,-10.94746 4.93404,-14.80214 z m -39.62647,69.8475 c -6.63011,-1.69603 -12.48928,-5.55079 -16.96075,-10.79319 4.47147,-5.24239 10.33064,-8.94296 16.96075,-10.79315 2.00445,4.31727 5.08822,8.01773 9.09712,10.79315 -4.0089,2.77539 -7.09267,6.47592 -9.09712,10.79319 z m 17.11493,-10.79319 c 0.46259,-0.15408 0.92513,-0.30816 1.23351,-0.30816 5.55079,-1.54187 10.48483,-4.00891 14.64792,-6.9385 2.00445,2.62119 4.16309,5.0882 6.47591,7.24689 -2.31282,2.15862 -4.47146,4.62566 -6.47591,7.24685 -4.16309,-2.92958 -9.09713,-5.39663 -14.64792,-6.93846 -0.30839,0 -0.77095,-0.15408 -1.23351,-0.30816 z m 22.51153,59.05421 c -3.23796,-3.85472 -4.93403,-9.09712 -4.93403,-14.80207 0.30839,-0.15446 0.61675,-0.46274 0.92513,-0.77097 2.77539,0.61674 5.70498,0.92517 8.63456,0.92517 0.3084,0.7709 0.92513,1.23349 1.69608,1.54183 0.77094,2.9296 1.69607,5.85918 2.46701,8.63454 0,0 0,0.15446 0.1542,0.15446 -0.3084,0.61667 -0.77094,1.38764 -1.07932,2.15857 -0.77094,2.00442 -1.23351,4.31731 -1.23351,6.78432 -0.1542,0 -0.1542,0.15407 -0.3084,0.15407 -2.46701,-1.23351 -4.62565,-2.77535 -6.32173,-4.77981 z m 9.86807,21.27805 c 0.77095,-2.92958 0.1542,-6.01337 -0.3084,-8.94296 -0.1542,-0.61678 -0.1542,-1.23352 -0.30839,-1.69603 0,-0.4627 -0.1542,-0.77101 -0.1542,-1.23356 0.46259,-0.15408 0.92513,-0.6167 1.2335,-1.07929 1.07932,0.15409 2.15864,0.30817 3.39215,0.46271 8.78876,21.27805 21.43222,40.39737 37.62204,57.04974 -4.93404,1.85026 -10.48482,2.15869 -16.4982,1.07933 -10.7932,-12.3351 -20.04452,-26.05788 -27.44557,-40.85998 1.23351,-1.3877 2.00445,-3.08382 2.46702,-4.77988 z m 26.05788,62.29219 c -0.92513,-4.77986 -1.23352,-9.55971 -0.92513,-14.49376 2.15864,0.46274 4.31728,0.61679 6.47593,0.61679 3.39216,0 6.78431,-0.46271 9.71389,-1.54196 -1.69609,4.93413 -2.00445,10.48491 -0.92513,16.34409 -4.77985,0.30816 -9.5597,0 -14.33956,-0.92516 z m 71.23515,26.36622 c -2.92958,-0.46271 -5.85917,-1.07937 -8.94294,-0.30817 -1.69608,0.4627 -3.39216,1.23345 -4.62565,2.31281 -14.64793,-7.24689 -28.37072,-16.4982 -40.85999,-27.44558 -1.2335,-5.85914 -0.77094,-11.56412 1.07932,-16.49813 16.49818,16.18973 35.61758,28.83318 57.04978,37.62195 0,1.07929 0.15424,2.15869 0.46254,3.39214 -0.46254,0.30815 -0.77093,0.77097 -1.07932,1.23356 -0.46254,0 -0.77093,-0.15447 -1.23351,-0.15447 -0.77094,0.15447 -1.3877,0 -1.85026,-0.15408 z m 7.55524,3.23801 c 0.15419,-0.15446 0.15419,-0.15446 0.15419,-0.30816 2.46702,-0.15409 4.62567,-0.46274 6.78431,-1.23352 0.77094,-0.30816 1.3877,-0.61678 2.15864,-1.07926 0,0 0.1542,0 0.1542,0.15371 2.92958,0.92517 5.70496,1.6961 8.63455,2.62127 0.30838,0.77098 0.77095,1.38764 1.54189,1.69603 0.15423,2.92967 0.4626,5.70498 0.92513,8.63458 -0.30839,0.30815 -0.61676,0.61677 -0.77094,0.92513 -5.70499,0.15446 -11.10157,-1.69611 -14.80211,-4.93402 -2.00445,-1.85026 -3.54634,-4.00895 -4.77984,-6.47591 z m 23.89923,14.8021 c 0.4626,-0.4627 0.77094,-0.92513 0.92513,-1.54199 3.70053,-0.61666 7.70944,-1.69602 11.87253,-3.54626 2.31283,-1.07932 4.62565,-2.15865 6.78429,-3.39216 0.46254,0.30816 0.92513,0.46273 1.54189,0.46273 0.61675,0 1.07932,-0.15407 1.54188,-0.61674 2.46702,1.69607 4.62566,3.70056 6.63011,6.16753 -8.0178,5.39667 -17.4233,8.63457 -26.8288,9.0972 -0.92514,-2.15865 -1.69609,-4.47154 -2.46703,-6.63012 z m 50.727944,31.14607 c -1.696022,6.63008 -5.550732,12.48936 -10.793104,16.96075 -5.24241,-4.47139 -8.94294,-10.33067 -10.79321,-16.96075 4.31729,-2.00442 8.01782,-5.08816 10.79321,-9.09715 2.775378,4.00899 6.475878,7.09273 10.793104,9.09715 z M -100.5895,499.51888 c -0.15415,0.46273 -0.30839,0.92517 -0.30839,1.2336 -0.15416,-0.4627 -0.30839,-0.92521 -0.30839,-1.2336 -1.54188,-5.55079 -4.0089,-10.48479 -6.93848,-14.6479 2.6212,-2.00443 5.08822,-4.16308 7.24686,-6.47592 2.158632,2.31284 4.625626,4.47149 7.246814,6.47592 -2.929564,4.16311 -5.242372,9.09711 -6.938434,14.6479 z m 37.005218,-6.0133 c -9.40551,-0.46273 -18.81102,-3.70052 -26.828824,-9.09715 2.004474,-2.46705 4.163064,-4.62574 6.630134,-6.16753 0.46271,0.30816 0.92512,0.61674 1.54187,0.61674 0.61673,0 1.07932,-0.1537 1.54186,-0.46273 2.15866,1.23351 4.47146,2.46703 6.78432,3.39213 4.16307,1.85027 8.17198,2.92959 11.8725,3.54633 0.15444,0.61677 0.46272,1.23352 0.92514,1.5419 -0.61674,2.15862 -1.38767,4.47147 -2.467,6.63012 z m 21.74056,-15.11052 c -3.85472,3.23794 -9.09711,4.93412 -14.8021,4.93412 -0.15443,-0.30816 -0.46271,-0.61685 -0.77094,-0.92517 0.61673,-2.77544 0.92513,-5.70499 0.92513,-8.63461 0.77094,-0.30816 1.23354,-0.92513 1.54187,-1.69603 2.9296,-0.7709 5.85919,-1.69611 8.63459,-2.6212 0,0 0.15442,0 0.15442,-0.15446 0.61679,0.30816 1.38772,0.77097 2.15866,1.07936 2.00446,0.77094 4.16307,1.23345 6.78431,1.23345 0,0.15408 0.15443,0.15408 0.15443,0.30816 -1.23353,2.6212 -2.77539,4.77985 -4.77985,6.47592 z m 12.33511,-9.5597 c -0.61674,0.15446 -1.23353,0.15446 -1.69607,0.30815 -0.4627,0 -0.77093,0.15409 -1.23353,0.15409 -0.15442,-0.46271 -0.61672,-0.9251 -1.07933,-1.23349 0.15444,-1.07933 0.30828,-2.15861 0.46272,-3.39214 21.27803,-8.78876 40.397446,-21.43224 57.04982,-37.62202 1.85026,4.93404 2.1586,10.48483 1.07933,16.49816 -12.335103,10.79319 -26.05788389,20.04454 -40.85999,27.44559 -1.38772,-1.07933 -2.92958,-2.0045 -4.62566,-2.31288 -3.08379,-0.77091 -6.16758,-0.30817 -9.09717,0.15446 z m 71.23513,-26.36622 c -4.77985,0.92516 -9.55971,1.23352 -14.49371,0.92516 1.07933,-5.70502 0.77094,-11.40996 -0.92512,-16.34409 4.93399,1.69615 10.48478,2.0045 16.34396,0.92517 0.30828,4.93405 0,9.7139 -0.92513,14.49376 z m 28.52488,-57.51238 c -7.24685,14.64791 -16.49816,28.37068 -27.44555,40.86002 -5.85918,1.23343 -11.56417,0.77097 -16.49816,-1.07938 16.18976,-16.49812 28.83327,-35.61753 37.62199,-57.0497 1.07933,0 2.15866,-0.15446 3.39213,-0.4627 0.30827,0.4627 0.77099,0.7709 1.23353,1.07929 0,0.46274 -0.15442,0.77097 -0.15442,1.23356 -0.15443,0.6167 -0.15443,1.23345 -0.30828,1.69603 -0.46272,2.92958 -1.07933,5.85918 -0.30828,8.94292 0.46272,1.6961 1.23353,3.39213 2.467,4.77985 z m 7.40105,-26.05786 c -1.69606,2.00445 -3.85472,3.70055 -6.32172,4.77988 -0.15442,-0.15446 -0.15442,-0.15446 -0.30827,-0.15446 -0.15443,-2.46696 -0.46271,-4.62561 -1.23352,-6.78426 -0.30828,-0.77099 -0.61675,-1.38769 -1.07928,-2.15866 0,0 0.15442,-0.15408 0.15442,-0.15408 0.92513,-2.92959 1.69606,-5.70495 2.46699,-8.63457 0.77094,-0.30816 1.38768,-0.77097 1.69607,-1.54187 2.92959,-0.15408 5.70499,-0.4627 8.63458,-0.92513 0.30827,0.30816 0.61674,0.61674 0.92514,0.7709 0.15442,5.70501 -1.69608,10.94737 -4.93407,14.80213 z m 21.123843,-58.74581 c -5.5508,1.54183 -10.48479,4.00887 -14.647913,6.93846 -2.00446,-2.6212 -4.16307,-5.0882 -6.47593,-7.24686 2.31286,-2.15865 4.47147,-4.62562 6.47593,-7.24685 4.163123,2.92962 9.097113,5.39659 14.647913,6.93846 0.4627,0.15446 0.92513,0.30817 1.233519,0.30817 -0.308159,0.15446 -0.770929,0.30815 -1.233519,0.30815 z m 18.502729,10.48479 c -2.00438,-4.31727 -5.0882,-8.0178 -9.09714,-10.79319 3.85474,-2.77542 7.09276,-6.47588 9.09714,-10.79315 6.63015,1.69604 12.48932,5.55076 16.96079,10.79315 -4.47147,5.2424 -10.48487,8.94292 -16.96079,10.79319 z"
       id="path32"
       style="fill:#400040;fill-opacity:1;stroke-width:1.00908732" />
  </g>
</svg>
